<?xml version="1.0" encoding="utf-8"?>
<!-- Generator: Adobe Illustrator 27.5.0, SVG Export Plug-In . SVG Version: 6.00 Build 0)  -->
<svg version="1.1" xmlns="http://www.w3.org/2000/svg" xmlns:xlink="http://www.w3.org/1999/xlink" x="0px" y="0px"
	 viewBox="0 0 500 500" style="enable-background:new 0 0 500 500;" xml:space="preserve">
<g id="BACKGROUND">
	<rect style="fill:#FFFFFF;" width="500" height="500"/>
	<g>
		<polygon style="fill:#F6F0FF;" points="79.282,379.46 34.368,316.625 87.417,265.752 71.372,177.07 136.436,172.736 
			150.672,123.411 253.077,175.406 338.388,121.069 373.709,225.829 465.632,214.383 425.867,301.712 457.52,334.103 
			431.591,379.46 		"/>
	</g>
</g>
<g id="OBJECTS">
	<g>
		<g>
			<g>
				<path style="fill:#EFC53D;" d="M302.007,277.841l-13.443,1.818c0,0-15.545,45.747-29.245,95.973h112.975
					c0,0-9.623-62.408-17.051-98.913l-16.914-1.54L302.007,277.841z"/>
			</g>
			<g>
				<path style="fill:#361015;" d="M311.041,218.348c10.467-2.555,21.378-13.706,38.242,1.293c16.863,15,9.721,41.881,9.721,41.881
					l10.341,8.633l-26.115,12.803l-11.211-47.589L311.041,218.348z"/>
			</g>
			<g>
				<g>
					<path style="fill:#7D4937;" d="M312.419,221.778c1.229-3.733-16.105-10.125-30.13-5.058
						c-22.401,8.093-30.58,17.099-30.58,17.099l10.225,19.032l24.826-13.338c0,0,13.561,2.615,14.736-0.361
						c1.174-2.975-11.169-7.186-10.613-8.816c0.465-1.361,1.774-3.085,5.014-4.826C303.306,221.531,311.69,223.994,312.419,221.778z
						"/>
				</g>
				<g>
					<path style="fill:#EFC53D;" d="M282.805,243.921l-13.033-24.24c0,0-41.847,25.793-55.962,44.928
						c-14.115,19.135,64.639,46.867,64.639,46.867l10.116-31.817l-27.367-12.967L282.805,243.921z"/>
				</g>
				<g>
					<g>
						<path style="fill:#E9A82B;" d="M266.815,237.418l0.016,0.171c0.052,0.55-0.352,1.038-0.902,1.089l-7.595,0.715
							c-0.55,0.052-1.038-0.352-1.089-0.902l-0.016-0.171c-0.052-0.55,0.352-1.038,0.902-1.089l7.595-0.715
							C266.275,236.464,266.763,236.868,266.815,237.418z"/>
					</g>
					<g>
						<path style="fill:#E9A82B;" d="M258.187,277.616l-0.122,0.121c-0.393,0.388-1.026,0.384-1.414-0.009l-4.2-4.256
							c-0.388-0.393-0.384-1.026,0.009-1.414l0.122-0.12c0.393-0.388,1.026-0.384,1.414,0.009l4.2,4.256
							C258.584,276.595,258.58,277.228,258.187,277.616z"/>
					</g>
					<g>
						<path style="fill:#E9A82B;" d="M241.125,257.384l-0.17-0.026c-0.546-0.083-0.921-0.593-0.838-1.139l0.9-5.911
							c0.083-0.546,0.593-0.921,1.139-0.838l0.17,0.026c0.546,0.083,0.921,0.593,0.838,1.139l-0.9,5.911
							C242.181,257.092,241.671,257.467,241.125,257.384z"/>
					</g>
					<g>
						<path style="fill:#E9A82B;" d="M221.637,281.031l-0.079-0.152c-0.253-0.491-0.06-1.094,0.432-1.347l6.783-3.491
							c0.491-0.253,1.094-0.06,1.347,0.432l0.079,0.152c0.253,0.491,0.059,1.094-0.432,1.347l-6.783,3.491
							C222.493,281.715,221.89,281.522,221.637,281.031z"/>
					</g>
					<g>
						<path style="fill:#E9A82B;" d="M263.304,298.762l-0.152-0.079c-0.49-0.255-0.68-0.859-0.425-1.349l3.521-6.768
							c0.255-0.49,0.859-0.68,1.349-0.426l0.152,0.079c0.49,0.255,0.681,0.859,0.426,1.349l-3.521,6.768
							C264.397,298.827,263.794,299.017,263.304,298.762z"/>
					</g>
				</g>
			</g>
			<g>
				<g>
					<g>
						<path style="fill:#DA445A;" d="M296.08,256.901c1.938,0.057,4.457,10.04-4.233,9.787c-10.159-0.296-3.95-13.344-1.762-13.975
							c2.189-0.631-2.492,9.444,2.148,9.579C296.544,262.418,294.656,256.86,296.08,256.901z"/>
					</g>
					<g>
						<g>
							<path style="fill:#7D4937;" d="M330.902,275.496l-0.584-26.479l-21.329,11.346l-0.117,15.939l-6.865,1.539l0,0
								c5.691,9.467,18.43,11.732,27.036,4.809l9.286-7.47L330.902,275.496z"/>
						</g>
						<g>
							<path style="fill:#603527;" d="M326.452,261.522c0,0-6.877,15.774-17.583,13.772l0.12-4.482L326.452,261.522z"/>
						</g>
					</g>
					<g>
						<path style="fill:#7D4937;" d="M287.237,246.782c-0.353,13.146,10.018,24.09,23.164,24.443
							c13.146,0.353,24.09-10.018,24.443-23.164c0.353-13.146-10.018-24.089-23.164-24.443
							C298.534,223.265,287.59,233.636,287.237,246.782z"/>
					</g>
					<g>
						<path style="fill:#361015;" d="M351.363,276.052c0,0,16.966,39.931-17.753,39.931c-34.719,0-1.749-59.466-1.749-59.466
							s4.078-7.477,2.247-12.678c0,0-23.077-9.367-28.254-17.615c0,0-9.452,10.063-15.845,10.034c0,0-0.522-17.909,18.861-17.909
							c14.622,0,22.558,6.373,24.741,14.309L351.363,276.052z"/>
					</g>
					<g>
						<g>
							<path style="fill:#090929;" d="M313.324,243.225c-0.028,1.053,0.802,1.929,1.855,1.957c1.053,0.028,1.929-0.802,1.958-1.855
								c0.028-1.053-0.802-1.929-1.855-1.958C314.229,241.342,313.352,242.172,313.324,243.225z"/>
						</g>
						<g>
							<path style="fill:#6E3530;" d="M305.446,251.436c-0.003,0-0.006,0-0.01,0c-1.244-0.033-2.229-1.073-2.195-2.316
								c0.032-1.245,1.05-2.23,2.317-2.196c0.192,0.005,0.346,0.167,0.34,0.359c-0.005,0.19-0.16,0.341-0.35,0.341
								c-0.013-0.001-0.034-0.001-0.052-0.001c-0.84,0-1.533,0.671-1.557,1.515c-0.022,0.858,0.657,1.575,1.516,1.598
								c0.193,0.005,0.346,0.167,0.34,0.36C305.791,251.286,305.635,251.436,305.446,251.436z"/>
						</g>
						<g>
							<path style="fill:#090929;" d="M294.882,242.73c-0.028,1.053,0.802,1.929,1.855,1.957c1.053,0.028,1.929-0.802,1.958-1.855
								c0.028-1.053-0.802-1.929-1.855-1.958C295.787,240.846,294.91,241.677,294.882,242.73z"/>
						</g>
						<g>
							<path style="fill:#603527;" d="M305.422,256.835c-0.103,0-0.205-0.045-0.274-0.132c-0.12-0.151-0.095-0.371,0.057-0.492
								c2.921-2.319,5.309-0.9,5.409-0.84c0.164,0.101,0.215,0.314,0.114,0.48c-0.1,0.165-0.313,0.217-0.479,0.117
								c-0.084-0.05-2.081-1.217-4.608,0.792C305.575,256.81,305.498,256.835,305.422,256.835z"/>
						</g>
						<g>
							<path style="fill:#4E181F;" d="M303.482,226.383c0.211,1.71,0.139,5.544-0.447,6.679c-0.481,0.932-8.119,6.01-13.443,4.668
								s-6.682-3.337-6.682-3.337C282.687,233.96,292.51,232.394,303.482,226.383z"/>
						</g>
						<g>
							<path style="fill:#4E181F;" d="M309.934,228.062c-0.211,1.71-0.139,5.544,0.447,6.679c0.481,0.932,8.119,6.01,13.443,4.668
								c5.324-1.343,6.683-3.337,6.683-3.337C330.729,235.639,320.906,234.073,309.934,228.062z"/>
						</g>
						<g>
							<g>
								<path style="fill:#FFFFFF;" d="M307.853,242.202c-0.275,0-0.55-0.114-0.748-0.336c-0.16-0.178-0.713-0.664-1.256-0.66
									c-0.112,0.004-0.456,0.015-0.917,0.595c-0.343,0.433-0.971,0.506-1.405,0.162c-0.433-0.343-0.505-0.972-0.161-1.405
									c0.863-1.088,1.803-1.335,2.439-1.352c1.529-0.024,2.676,1.195,2.799,1.336c0.365,0.415,0.324,1.047-0.091,1.411
									C308.323,242.12,308.088,242.202,307.853,242.202z"/>
							</g>
							<g>
								<path style="fill:#FFFFFF;" d="M333.404,245.667c-0.083,0-0.168-0.01-0.252-0.032l-10.014-2.593
									c-0.534-0.139-0.855-0.684-0.717-1.219c0.138-0.535,0.685-0.856,1.219-0.718l10.014,2.593
									c0.534,0.139,0.855,0.684,0.717,1.219C334.255,245.369,333.848,245.667,333.404,245.667z"/>
							</g>
							<g>
								<path style="fill:#FFFFFF;" d="M315.614,251.046c-0.019,0-0.037,0-0.055,0c-2.342-0.014-4.537-0.939-6.183-2.604
									c-1.645-1.666-2.544-3.873-2.529-6.214c0.014-2.341,0.938-4.536,2.605-6.182c1.652-1.633,3.838-2.53,6.158-2.53
									c0.019,0,0.037,0,0.055,0c2.342,0.014,4.537,0.939,6.183,2.605c1.646,1.665,2.544,3.873,2.529,6.214
									c-0.014,2.341-0.938,4.536-2.604,6.182C320.12,250.149,317.934,251.046,315.614,251.046z M315.611,235.516
									c-1.792,0-3.478,0.692-4.754,1.953c-1.285,1.27-1.999,2.964-2.01,4.771c0,0,0,0,0,0.001
									c-0.011,1.807,0.682,3.51,1.952,4.795c1.27,1.286,2.965,2,4.772,2.01c1.817-0.005,3.511-0.683,4.796-1.952
									c1.285-1.27,1.999-2.965,2.01-4.771c0.011-1.807-0.682-3.51-1.952-4.796c-1.27-1.286-2.965-1.999-4.771-2.01
									C315.639,235.516,315.625,235.516,315.611,235.516z M307.847,242.234h0.01H307.847z"/>
							</g>
							<g>
								<path style="fill:#FFFFFF;" d="M295.943,250.927c-0.019,0-0.037,0-0.055,0c-2.341-0.014-4.537-0.939-6.183-2.605
									c-1.645-1.666-2.544-3.873-2.529-6.214c0.014-2.341,0.938-4.536,2.605-6.182c1.652-1.633,3.838-2.53,6.158-2.53
									c0.019,0,0.037,0,0.055,0c2.342,0.014,4.537,0.939,6.183,2.604c1.646,1.666,2.544,3.872,2.529,6.214
									c-0.014,2.341-0.938,4.536-2.604,6.182C300.449,250.03,298.263,250.927,295.943,250.927z M295.94,235.397
									c-1.792,0-3.478,0.692-4.754,1.953c-1.285,1.27-1.999,2.964-2.01,4.771c0,0,0,0,0,0c-0.011,1.807,0.683,3.51,1.952,4.795
									c1.27,1.286,2.965,1.999,4.771,2.01c0.014,0,0.028,0,0.042,0c1.792,0,3.479-0.692,4.754-1.952
									c1.285-1.27,1.999-2.965,2.01-4.771c0.011-1.807-0.682-3.51-1.952-4.796c-1.27-1.286-2.965-1.999-4.772-2.01
									C295.969,235.397,295.954,235.397,295.94,235.397z M288.176,242.115h0.01H288.176z"/>
							</g>
						</g>
					</g>
					<g>
						<g>
							<path style="fill:#7D4937;" d="M331.165,246.257c0,0,6.466-6.826,12-3.812c5.534,3.014,4.37,16.577-6.38,14.456
								c-5.764-1.137-6.425-4.091-6.425-4.091L331.165,246.257z"/>
						</g>
						<g>
							<path style="fill:#6E3530;" d="M334.488,249.749c-0.143,0-0.277-0.088-0.329-0.23c-0.065-0.182,0.027-0.382,0.21-0.449
								l6.803-2.474c0.178-0.064,0.382,0.027,0.448,0.21c0.066,0.182-0.027,0.382-0.21,0.449l-6.803,2.474
								C334.568,249.743,334.528,249.749,334.488,249.749z"/>
						</g>
					</g>
					<g>
						<path style="fill:#DA445A;" d="M341.901,256.901c1.938,0.057,4.457,10.04-4.233,9.787c-10.159-0.296-3.95-13.344-1.762-13.975
							c2.189-0.631-2.492,9.444,2.148,9.579C342.364,262.418,340.477,256.86,341.901,256.901z"/>
					</g>
				</g>
			</g>
			<g>
				<g>
					<path style="fill:#7D4937;" d="M316.028,222.115c-1.229-3.733,16.105-10.126,30.13-5.058
						c22.401,8.093,30.58,17.099,30.58,17.099l-10.225,19.032l-24.826-13.338c0,0-13.561,2.615-14.736-0.361
						c-1.174-2.976,11.169-7.186,10.613-8.816c-0.465-1.361-1.774-3.085-5.014-4.825
						C325.141,221.867,316.757,224.33,316.028,222.115z"/>
				</g>
				<g>
					<path style="fill:#EFC53D;" d="M345.642,244.258l13.033-24.24c0,0,57.208,22.516,71.323,41.652
						c14.115,19.135-70.228,49.807-70.228,49.807l-5.486-33.988l23.934-11.655L345.642,244.258z"/>
				</g>
				<g>
					<g>
						<path style="fill:#E9A82B;" d="M392.08,269.134l-0.171,0.018c-0.549,0.056-1.04-0.344-1.096-0.893l-0.776-7.589
							c-0.056-0.549,0.344-1.04,0.893-1.096l0.171-0.017c0.549-0.056,1.04,0.344,1.096,0.893l0.776,7.589
							C393.03,268.587,392.63,269.078,392.08,269.134z"/>
					</g>
					<g>
						<path style="fill:#E9A82B;" d="M377.105,278.544l0.004,0.171c0.014,0.552-0.422,1.011-0.974,1.025l-7.626,0.193
							c-0.552,0.014-1.011-0.422-1.025-0.974l-0.004-0.172c-0.014-0.552,0.422-1.011,0.974-1.025l7.626-0.193
							C376.632,277.556,377.091,277.992,377.105,278.544z"/>
					</g>
					<g>
						<path style="fill:#E9A82B;" d="M374.461,239.018l-0.049,0.165c-0.156,0.53-0.713,0.832-1.242,0.675l-7.316-2.163
							c-0.53-0.157-0.832-0.713-0.675-1.242l0.049-0.164c0.157-0.53,0.713-0.832,1.242-0.676l7.316,2.163
							C374.315,237.932,374.618,238.488,374.461,239.018z"/>
					</g>
					<g>
						<path style="fill:#E9A82B;" d="M422.454,262.501l0.035,0.168c0.112,0.541-0.235,1.07-0.776,1.183l-7.469,1.552
							c-0.541,0.112-1.07-0.235-1.183-0.776l-0.035-0.168c-0.112-0.541,0.235-1.07,0.776-1.182l7.469-1.552
							C421.812,261.613,422.341,261.96,422.454,262.501z"/>
					</g>
					<g>
						<path style="fill:#E9A82B;" d="M367.619,302.729l-0.122,0.12c-0.393,0.388-1.026,0.384-1.414-0.009l-5.359-5.43
							c-0.388-0.393-0.384-1.026,0.009-1.414l0.122-0.121c0.393-0.388,1.026-0.384,1.414,0.009l5.359,5.43
							C368.016,301.708,368.012,302.341,367.619,302.729z"/>
					</g>
					<g>
						<path style="fill:#E9A82B;" d="M392.692,286.018l0.026-0.169c0.085-0.546,0.597-0.919,1.142-0.834l7.538,1.177
							c0.546,0.085,0.919,0.597,0.834,1.142l-0.026,0.169c-0.085,0.546-0.597,0.919-1.142,0.834l-7.538-1.177
							C392.98,287.075,392.607,286.564,392.692,286.018z"/>
					</g>
				</g>
			</g>
			<g>
				<g>
					<path style="fill:#E9A82B;" d="M331.923,321.029l-0.037-0.167c-0.12-0.539,0.221-1.073,0.76-1.193l7.448-1.651
						c0.539-0.12,1.073,0.221,1.193,0.76l0.037,0.168c0.12,0.539-0.221,1.073-0.76,1.193l-7.448,1.651
						C332.577,321.908,332.043,321.568,331.923,321.029z"/>
				</g>
				<g>
					<path style="fill:#E9A82B;" d="M350.826,370.212l-0.037-0.167c-0.12-0.539,0.221-1.073,0.76-1.193l7.448-1.652
						c0.539-0.12,1.073,0.221,1.193,0.76l0.037,0.168c0.12,0.539-0.221,1.073-0.76,1.193l-7.448,1.651
						C351.479,371.091,350.945,370.751,350.826,370.212z"/>
				</g>
				<g>
					<path style="fill:#E9A82B;" d="M312.873,323.854l-0.171,0.017c-0.549,0.056-1.04-0.344-1.096-0.893l-0.776-7.589
						c-0.056-0.549,0.344-1.04,0.893-1.096l0.171-0.018c0.549-0.056,1.04,0.344,1.096,0.893l0.776,7.589
						C313.822,323.307,313.422,323.798,312.873,323.854z"/>
				</g>
				<g>
					<path style="fill:#E9A82B;" d="M294.97,294.761l-0.161,0.059c-0.519,0.188-1.093-0.08-1.281-0.599l-2.601-7.172
						c-0.188-0.519,0.08-1.093,0.599-1.281l0.161-0.058c0.519-0.188,1.093,0.08,1.281,0.599l2.601,7.172
						C295.757,293.999,295.489,294.572,294.97,294.761z"/>
				</g>
				<g>
					<path style="fill:#E9A82B;" d="M284.94,346.573l-0.171-0.003c-0.552-0.011-0.991-0.467-0.981-1.019l0.146-7.627
						c0.011-0.552,0.467-0.991,1.019-0.981l0.171,0.003c0.552,0.011,0.991,0.467,0.981,1.019l-0.146,7.627
						C285.949,346.145,285.493,346.584,284.94,346.573z"/>
				</g>
				<g>
					<path style="fill:#E9A82B;" d="M285.02,372.911l-0.138,0.102c-0.445,0.328-1.071,0.233-1.398-0.212l-4.525-6.142
						c-0.328-0.445-0.233-1.071,0.212-1.398l0.138-0.102c0.445-0.328,1.071-0.233,1.398,0.212l4.525,6.142
						C285.56,371.957,285.465,372.583,285.02,372.911z"/>
				</g>
				<g>
					<path style="fill:#E9A82B;" d="M294.067,362.4l-0.106-0.134c-0.343-0.433-0.27-1.062,0.163-1.405l5.981-4.735
						c0.433-0.343,1.062-0.27,1.405,0.163l0.106,0.134c0.343,0.433,0.27,1.062-0.163,1.405l-5.981,4.735
						C295.039,362.906,294.41,362.833,294.067,362.4z"/>
				</g>
				<g>
					<path style="fill:#E9A82B;" d="M287.296,317.54l-0.122,0.121c-0.393,0.388-1.026,0.384-1.414-0.009l-5.359-5.43
						c-0.388-0.393-0.384-1.026,0.009-1.414l0.122-0.121c0.393-0.388,1.026-0.384,1.414,0.009l5.359,5.43
						C287.694,316.519,287.689,317.152,287.296,317.54z"/>
				</g>
				<g>
					<path style="fill:#E9A82B;" d="M351.736,354.534l-0.168,0.034c-0.542,0.108-1.068-0.243-1.177-0.784l-1.497-7.481
						c-0.108-0.542,0.243-1.068,0.784-1.177l0.168-0.034c0.542-0.108,1.068,0.243,1.177,0.784l1.497,7.481
						C352.629,353.899,352.278,354.426,351.736,354.534z"/>
				</g>
				<g>
					<path style="fill:#E9A82B;" d="M304.814,342.142l0.011-0.171c0.035-0.551,0.51-0.97,1.061-0.935l7.613,0.482
						c0.551,0.035,0.97,0.51,0.935,1.061l-0.011,0.171c-0.035,0.551-0.51,0.97-1.061,0.935l-7.614-0.482
						C305.198,343.168,304.779,342.693,304.814,342.142z"/>
				</g>
				<g>
					<path style="fill:#E9A82B;" d="M268.644,353.19l-0.139-0.121c-0.31-0.269-0.424-0.701-0.287-1.088l1.621-4.583
						c0.184-0.521,0.755-0.793,1.276-0.609l0.162,0.057c0.521,0.184,0.793,0.755,0.609,1.276l-1.643,4.647
						C270.008,353.434,269.177,353.653,268.644,353.19z"/>
				</g>
				<g>
					<path style="fill:#E9A82B;" d="M332.355,369.805l-0.152-0.079c-0.49-0.255-0.68-0.859-0.426-1.349l3.521-6.768
						c0.255-0.49,0.859-0.681,1.349-0.426l0.152,0.079c0.49,0.255,0.681,0.859,0.426,1.349l-3.521,6.768
						C333.449,369.869,332.845,370.06,332.355,369.805z"/>
				</g>
			</g>
		</g>
		<g>
			<g>
				<path style="fill:#DA445A;" d="M391.426,147.517c-4.351-15.708-42.052-34.444-57.787-30.192
					c-12.425,3.358-24.828,22.467-20.038,38.354c2.201,7.3,10.294,15.267,20.48,21.263l-2.855,6.485l-6.003-4.71l-8.506,25.317
					l13.535-15.591l6.746,5.304l6.265-12.205c9.427,3.959,19.581,5.949,28.123,4.328
					C382.017,183.854,395.641,162.733,391.426,147.517z"/>
				<g>
					<g>
						<path style="fill:#FFFFFF;" d="M338.452,140.935c-4.879,7.258-4.379,18.161,2.275,24.209
							c3.195,2.904,7.493,3.979,11.619,2.565c4.247-1.456,7.639-4.807,10.089-8.473c2.61-3.906,4.379-8.683,3.748-13.436
							c-0.52-3.911-2.794-7.745-6.292-9.687c-1.858-1.031-4.079-1.516-6.183-1.095c-1.943,0.389-3.536,1.672-4.47,3.398
							c-1.939,3.585-1.485,8.169-0.862,12.032c0.391,2.426,1.045,4.817,2.108,7.04c0.921,1.926,2.205,3.814,4.07,4.935
							c1.707,1.025,3.752,1.13,5.531,0.226c1.804-0.915,3.129-2.667,3.965-4.468c1.98-4.267,1.908-9.561,0.223-13.906
							c-0.756-1.948-1.955-3.878-3.807-4.952c-1.71-0.992-3.739-0.849-5.249,0.441c-1.593,1.36-2.303,3.532-2.755,5.505
							c-0.568,2.481-0.751,5.055-0.539,7.591c0.2,2.39,0.698,4.831,1.665,7.035c0.815,1.858,2.219,3.535,4.324,3.868
							c2.089,0.33,4.066-0.742,5.639-2.013c1.802-1.457,3.266-3.354,4.503-5.301c1.274-2.005,2.33-4.354,2.147-6.785
							c-0.145-1.93-1.071-3.682-2.548-4.926c-3.122-2.629-7.453-2.743-10.988-0.906c-4.006,2.082-6.789,6.093-8.446,10.188
							c-0.909,2.246-1.471,4.624-1.695,7.035c-0.113,1.217-0.139,2.448-0.057,3.667c0.064,0.951,0.261,1.996,1.159,2.516
							c1.844,1.069,3.948-1.007,5.124-2.194c1.584-1.6,2.928-3.446,3.967-5.443c1.025-1.969,1.771-4.089,2.172-6.273
							c0.223-1.218,0.378-2.47,0.138-3.698c-0.219-1.122-0.816-2.124-1.521-3.007c-2.451-3.072-6.121-5.169-9.879-6.185
							c-7.584-2.049-16.976,0.11-21.481,6.97c-2.194,3.341-2.497,8.03,0.474,11.039c3.612,3.658,9.059,1.174,12.982-0.54
							c9.004-3.934,17.316-9.455,24.44-16.222c0.771-0.732,1.613-1.598,1.81-2.686c0.18-0.994-0.309-1.841-1.136-2.368
							c-0.952-0.606-2.136-0.954-3.196-1.32c-1.232-0.425-2.485-0.786-3.753-1.086c-4.875-1.15-9.95-1.371-14.907-0.663
							c-4.57,0.653-9.324,2.028-12.936,5.021c-3.259,2.702-5.301,7.028-4.433,11.29c0.874,4.288,4.889,6.896,9.018,7.426
							c2.642,0.339,5.324-0.091,7.872-0.796c2.493-0.69,4.929-1.61,7.292-2.656c2.367-1.048,4.685-2.245,6.876-3.626
							c1.74-1.098,3.431-2.408,4.581-4.14c1.175-1.769,1.506-3.908,0.862-5.939c-0.696-2.194-2.203-4.033-3.656-5.772
							c-2.771-3.317-6.088-6.706-10.356-7.955c-4.209-1.232-8.529,0.245-11.619,3.234c-3.407,3.296-4.882,7.988-5.407,12.588
							c-0.528,4.625-0.251,9.391,0.878,13.91c1.097,4.391,3.07,8.582,5.993,12.056c2.729,3.245,6.354,5.727,10.348,7.144
							c3.933,1.396,8.295,1.706,12.326,0.533c4.308-1.253,8.092-4.153,9.868-8.339c1.856-4.373,1.515-9.325,0.073-13.761
							c-0.789-2.426-1.882-4.745-3.089-6.988c-1.122-2.086-2.33-4.135-3.782-6.012c-2.722-3.518-6.483-6.325-11.062-6.578
							c-2.139-0.119-4.333,0.393-6.089,1.649c-1.637,1.171-2.82,2.834-3.624,4.665c-0.853,1.943-1.339,4.016-1.671,6.105
							c-0.39,2.45-0.648,4.927-0.714,7.407c-0.129,4.908,0.504,10.042,2.68,14.498c0.914,1.871,2.255,3.635,4.233,4.446
							c2.104,0.863,4.401,0.387,6.39-0.553c2.127-1.005,3.953-2.538,5.7-4.089c1.792-1.591,3.492-3.286,5.09-5.071
							c3.202-3.575,6.008-7.51,8.329-11.711c1.055-1.908,2.698-4.345,2.02-6.626c-0.533-1.796-2.316-2.764-4.022-3.187
							c-1.943-0.482-4.052-0.406-6.026-0.179c-2.053,0.235-4.07,0.714-6.01,1.424c-3.987,1.457-7.606,3.781-10.778,6.584
							c-3.259,2.88-6.064,6.281-8.37,9.965c-1.134,1.811-2.701,4.057-2.128,6.308c0.465,1.828,2.281,2.961,4.059,3.209
							c2.306,0.322,4.5-0.844,6.35-2.09c1.997-1.345,3.917-2.818,5.773-4.351c3.793-3.131,7.3-6.607,10.463-10.373
							c1.546-1.84,3.058-3.741,4.396-5.738c1.227-1.832,2.305-4.125,1.501-6.347c-0.677-1.872-2.411-3.241-4.315-3.717
							c-2.342-0.586-4.82,0.111-6.881,1.252c-3.815,2.112-6.569,5.758-8.36,9.665c-1.47,3.207-3.175,7.665-1.335,11.074
							c0.932,1.727,2.823,2.52,4.731,2.258c2.364-0.324,4.473-1.817,6.389-3.14c3.998-2.761,7.686-6.09,10.716-9.896
							c1.35-1.695,2.524-3.675,2.211-5.927c-0.29-2.089-1.695-3.884-3.421-5.024c-2.017-1.331-4.505-1.737-6.872-1.882
							c-2.401-0.147-4.911-0.203-7.267,0.356c-2.111,0.502-4.036,1.617-5.241,3.459c-1.083,1.655-1.403,3.772-0.455,5.564
							c2.308,4.362,8.134,3.562,11.828,1.773c3.457-1.674,7.214-5.415,5.76-9.611c-1.432-4.132-6.851-6.252-10.905-5.706
							c-2.16,0.291-4.107,1.377-5.415,3.132c-1.195,1.604-1.725,3.769-1.021,5.688c0.648,1.767,2.162,3.288,4.033,3.7
							c2.2,0.485,4.11-0.78,5.749-2.091c1.703-1.362,3.606-2.869,4.212-5.068c0.564-2.048-0.147-4.187-2.147-5.098
							c-3.843-1.752-8.643-0.223-11.849,2.154c-3.663,2.716-5.908,6.734-7.017,11.103c-0.592,2.331-0.884,4.735-1.005,7.135
							c-0.112,2.218-0.127,4.461,0.095,6.673c0.369,3.679,1.415,7.751,4.435,10.167c3.559,2.848,8.19,2.117,11.995,0.195
							c4.184-2.114,7.779-5.463,11.113-8.706c3.494-3.399,6.694-7.089,9.591-11.008c0.383-0.518-0.485-1.017-0.863-0.505
							c-2.713,3.671-5.709,7.13-8.957,10.338c-3.122,3.084-6.464,6.223-10.286,8.422c-3.46,1.99-7.868,3.281-11.461,0.864
							c-2.919-1.964-4.043-5.668-4.477-8.983c-0.249-1.899-0.279-3.821-0.244-5.734c0.041-2.214,0.202-4.431,0.599-6.611
							c0.752-4.132,2.367-8.179,5.424-11.148c2.748-2.669,6.579-4.472,10.472-3.982c0.962,0.121,2,0.362,2.766,0.989
							c0.806,0.66,1.087,1.681,0.999,2.691c-0.19,2.157-1.979,3.676-3.544,4.953c-1.527,1.245-3.38,2.797-5.497,2.245
							c-1.765-0.46-3.157-2.116-3.414-3.907c-0.274-1.908,0.732-3.786,2.143-5.007c1.635-1.414,3.843-1.869,5.954-1.63
							c3.641,0.412,8.679,3.255,7.726,7.614c-0.857,3.919-5.384,6.353-9.002,7.049c-2.05,0.394-4.321,0.133-5.92-1.318
							c-1.477-1.341-1.822-3.335-0.955-5.122c2.026-4.177,7.282-4.226,11.28-4.067c2.238,0.089,4.575,0.349,6.571,1.443
							c1.713,0.938,3.197,2.605,3.499,4.586c0.328,2.151-1.015,4.046-2.317,5.611c-1.434,1.725-2.986,3.352-4.635,4.871
							c-1.619,1.491-3.333,2.877-5.133,4.144c-1.774,1.248-3.699,2.66-5.843,3.166c-1.865,0.441-3.714-0.256-4.458-2.084
							c-0.621-1.528-0.489-3.33-0.146-4.907c0.807-3.712,2.707-7.48,5.189-10.349c2.554-2.953,6.911-6.092,11.024-4.736
							c1.793,0.591,3.371,2.171,3.426,4.135c0.063,2.235-1.505,4.206-2.761,5.912c-2.613,3.55-5.529,6.879-8.69,9.951
							c-3.158,3.069-6.564,5.904-10.195,8.396c-1.705,1.17-3.75,2.43-5.912,2.158c-1.838-0.231-3.588-1.592-3.357-3.602
							c0.134-1.164,0.774-2.227,1.354-3.22c0.479-0.82,0.983-1.625,1.511-2.414c1.096-1.639,2.293-3.208,3.592-4.691
							c2.56-2.923,5.501-5.533,8.815-7.572c3.211-1.975,6.772-3.398,10.514-3.938c1.846-0.267,3.844-0.395,5.692-0.073
							c1.531,0.267,3.421,0.929,3.967,2.552c0.395,1.176-0.1,2.421-0.612,3.477c-0.479,0.989-1.003,1.959-1.542,2.916
							c-1.038,1.842-2.17,3.632-3.388,5.36c-2.513,3.566-5.404,6.866-8.601,9.834c-1.577,1.465-3.209,2.925-5.048,4.056
							c-1.746,1.074-3.866,1.984-5.958,1.592c-2.061-0.387-3.486-1.958-4.454-3.724c-1.051-1.917-1.71-4.074-2.163-6.204
							c-0.952-4.476-0.846-9.124-0.28-13.643c0.466-3.721,1.154-7.938,3.749-10.831c2.785-3.105,7.218-3.368,10.891-1.79
							c3.917,1.683,6.616,5.261,8.725,8.827c4.205,7.109,8.328,16.972,2.909,24.602c-4.814,6.777-14.525,7.28-21.524,4.038
							c-7.5-3.474-12.179-10.628-13.962-18.532c-0.923-4.093-1.126-8.361-0.69-12.531c0.445-4.25,1.734-8.641,4.748-11.798
							c2.732-2.862,6.659-4.479,10.596-3.504c3.919,0.971,7.022,3.963,9.598,6.918c2.555,2.932,5.99,6.9,3.689,10.947
							c-0.953,1.676-2.521,2.941-4.11,3.985c-1.879,1.233-3.885,2.296-5.914,3.258c-2.138,1.014-4.341,1.891-6.59,2.625
							c-2.317,0.756-4.715,1.37-7.163,1.426c-3.956,0.091-8.477-1.588-9.965-5.578c-1.39-3.727,0.14-7.974,2.863-10.674
							c3.003-2.978,7.193-4.434,11.256-5.256c4.503-0.912,9.19-1.001,13.728-0.278c2.279,0.363,4.526,0.925,6.706,1.683
							c0.959,0.334,2.091,0.636,2.927,1.23c1.101,0.782,0.422,1.984-0.291,2.776c-1.468,1.63-3.252,3.058-4.938,4.454
							c-1.713,1.418-3.483,2.766-5.305,4.042c-3.595,2.518-7.385,4.757-11.326,6.688c-1.999,0.979-4.036,1.892-6.113,2.695
							c-2.104,0.813-4.501,1.571-6.748,0.9c-3.798-1.134-4.86-5.792-3.611-9.141c1.346-3.608,4.758-6.291,8.215-7.751
							c3.249-1.372,6.871-1.798,10.363-1.364c3.499,0.436,6.942,1.778,9.712,3.979c1.509,1.199,3.173,2.745,3.718,4.652
							c0.584,2.044-0.124,4.504-0.771,6.464c-0.639,1.934-1.558,3.771-2.709,5.451c-1.112,1.624-2.512,3.352-4.153,4.472
							c-0.738,0.504-2.051,1.115-2.615,0.056c-0.455-0.855-0.305-2.204-0.286-3.137c0.045-2.225,0.411-4.435,1.069-6.561
							c1.237-3.997,3.553-7.967,6.979-10.469c3.033-2.215,6.966-3.007,10.35-1.076c1.452,0.828,2.664,2.127,3.145,3.752
							c0.656,2.218-0.078,4.516-1.156,6.471c-1.025,1.858-2.332,3.64-3.842,5.133c-1.377,1.361-3.203,2.773-5.233,2.798
							c-2.09,0.025-3.467-1.582-4.251-3.351c-0.911-2.058-1.378-4.383-1.567-6.616c-0.197-2.335-0.06-4.7,0.43-6.992
							c0.395-1.849,0.967-3.882,2.382-5.228c1.484-1.411,3.517-1.162,5.005,0.096c1.59,1.343,2.484,3.288,3.057,5.249
							c1.183,4.05,1.044,8.957-1.121,12.671c-0.909,1.559-2.275,3.041-4.082,3.498c-1.938,0.489-3.763-0.474-5.073-1.855
							c-2.988-3.151-4.017-7.994-4.45-12.171c-0.345-3.332-0.549-7.533,1.746-10.281c2.701-3.234,7.598-2.065,10.38,0.416
							c2.857,2.548,4.264,6.362,4.098,10.147c-0.193,4.395-2.255,8.595-4.938,12.006c-2.444,3.106-5.779,5.908-9.736,6.733
							c-3.983,0.83-7.764-0.937-10.37-3.92c-5.213-5.964-5.265-15.343-0.933-21.787C339.676,140.905,338.81,140.404,338.452,140.935
							L338.452,140.935z"/>
					</g>
				</g>
			</g>
			<g>
				<g>
					<path style="fill:#312D43;" d="M287.67,209.34c-0.03,0-0.06-0.002-0.091-0.008c-0.272-0.05-0.452-0.31-0.402-0.581
						l2.963-16.181c0.032-0.174,0.154-0.319,0.32-0.38c0.166-0.062,0.353-0.029,0.489,0.084l9.245,7.613l3.597-11.863
						c0.052-0.17,0.19-0.3,0.362-0.341c0.17-0.04,0.354,0.012,0.478,0.141l5.453,5.696c0.19,0.199,0.184,0.516-0.016,0.707
						c-0.199,0.191-0.516,0.183-0.707-0.016l-4.861-5.078l-3.566,11.763c-0.049,0.16-0.174,0.285-0.334,0.333
						c-0.155,0.049-0.333,0.014-0.462-0.093l-9.167-7.549l-2.81,15.344C288.116,209.171,287.906,209.34,287.67,209.34z"/>
				</g>
				<g>
					<path style="fill:#312D43;" d="M361.956,213.839c-0.251,0-0.467-0.189-0.496-0.444l-1.28-11.351l-11.289,3.656
						c-0.154,0.05-0.319,0.022-0.448-0.071c-0.13-0.094-0.206-0.244-0.206-0.404v-9.642l-11.531,2.339
						c-0.273,0.051-0.535-0.12-0.59-0.391c-0.055-0.271,0.12-0.535,0.391-0.59l12.131-2.46c0.148-0.029,0.3,0.008,0.416,0.103
						c0.116,0.095,0.184,0.237,0.184,0.387v9.566l11.218-3.632c0.146-0.046,0.3-0.025,0.425,0.055
						c0.127,0.082,0.21,0.215,0.227,0.364l1.349,11.958c0.03,0.274-0.167,0.522-0.441,0.553
						C361.994,213.838,361.975,213.839,361.956,213.839z"/>
				</g>
			</g>
		</g>
	</g>
	<g>
		<g>
			<g>
				<path style="fill:#FFFFFF;" d="M129.646,211.776c-3.129-0.458-32.41,23.704-32.554,26.863
					c-0.144,3.159,20.733,30.038,25.044,31.403c4.311,1.365,34.109-23.224,33.588-27.715
					C155.202,237.835,132.775,212.234,129.646,211.776z"/>
			</g>
			<g>
				<path style="fill:#EFC53D;" d="M97.092,238.639c-0.05,1.1,0.37,2.557,4.205,7.784l35.193-29.04
					c-4.405-4.758-5.755-5.447-6.844-5.607C126.517,211.318,97.236,235.48,97.092,238.639z"/>
			</g>
			<g>
				<g>
					<g>
						<path style="fill:#3449F3;" d="M114.575,226.669c-0.671,0.554-1.665,0.459-2.219-0.212l-3.742-4.535
							c-0.554-0.671-0.459-1.665,0.213-2.219c0.671-0.554,1.665-0.459,2.219,0.213l3.742,4.535
							C115.342,225.121,115.246,226.115,114.575,226.669z"/>
					</g>
				</g>
				<g>
					<g>
						<path style="fill:#3449F3;" d="M108.565,231.628c-0.671,0.554-1.665,0.459-2.219-0.212l-3.742-4.535
							c-0.554-0.671-0.459-1.665,0.213-2.219s1.665-0.459,2.219,0.213l3.742,4.535C109.332,230.08,109.236,231.074,108.565,231.628z
							"/>
					</g>
				</g>
				<g>
					<g>
						<path style="fill:#3449F3;" d="M102.555,236.587c-0.671,0.554-1.665,0.459-2.219-0.212l-3.742-4.535
							c-0.554-0.671-0.459-1.665,0.213-2.219c0.671-0.554,1.665-0.459,2.219,0.213l3.742,4.535
							C103.322,235.04,103.226,236.033,102.555,236.587z"/>
					</g>
				</g>
				<g>
					<g>
						<path style="fill:#3449F3;" d="M120.585,221.71c-0.671,0.554-1.665,0.459-2.219-0.213l-3.742-4.535
							c-0.554-0.671-0.459-1.665,0.213-2.219c0.671-0.554,1.665-0.459,2.219,0.213l3.742,4.535
							C121.351,220.162,121.256,221.156,120.585,221.71z"/>
					</g>
				</g>
				<g>
					<g>
						<path style="fill:#3449F3;" d="M126.595,216.75c-0.671,0.554-1.665,0.459-2.219-0.213l-3.742-4.535
							c-0.554-0.671-0.459-1.665,0.213-2.219c0.671-0.554,1.665-0.459,2.219,0.213l3.742,4.535
							C127.361,215.203,127.266,216.196,126.595,216.75z"/>
					</g>
				</g>
			</g>
			<g>
				<g>
					<path style="fill:#69B0DA;" d="M120.289,254.242c0.788,0.956,0.653,2.37-0.302,3.158c-0.956,0.789-2.369,0.653-3.158-0.302
						c-0.789-0.956-0.653-2.37,0.302-3.158C118.086,253.151,119.5,253.286,120.289,254.242z"/>
				</g>
				<g>
					<path style="fill:#69B0DA;" d="M126.299,249.283c0.788,0.956,0.653,2.369-0.302,3.158c-0.956,0.788-2.369,0.653-3.158-0.302
						c-0.788-0.956-0.653-2.37,0.302-3.158C124.096,248.192,125.51,248.327,126.299,249.283z"/>
				</g>
				<g>
					<path style="fill:#69B0DA;" d="M132.156,244.45c0.788,0.956,0.653,2.369-0.302,3.158c-0.956,0.788-2.37,0.653-3.158-0.303
						c-0.788-0.956-0.653-2.369,0.303-3.158C129.953,243.359,131.367,243.494,132.156,244.45z"/>
				</g>
				<g>
					<path style="fill:#69B0DA;" d="M138.166,239.49c0.789,0.956,0.653,2.37-0.303,3.158c-0.956,0.789-2.369,0.653-3.158-0.303
						c-0.788-0.956-0.653-2.369,0.302-3.158C135.963,238.4,137.377,238.535,138.166,239.49z"/>
				</g>
				<g>
					<path style="fill:#D2428F;" d="M144.023,234.658c0.789,0.956,0.653,2.369-0.302,3.158c-0.956,0.789-2.37,0.653-3.158-0.303
						s-0.653-2.37,0.303-3.158S143.234,233.702,144.023,234.658z"/>
				</g>
			</g>
			<g>
				<g>
					<path style="fill:#69B0DA;" d="M114.127,246.539c0.789,0.955,0.653,2.369-0.302,3.158c-0.956,0.789-2.369,0.653-3.158-0.302
						c-0.789-0.956-0.653-2.37,0.303-3.158C111.925,245.448,113.339,245.583,114.127,246.539z"/>
				</g>
				<g>
					<path style="fill:#69B0DA;" d="M120.137,241.579c0.789,0.956,0.653,2.37-0.302,3.158c-0.956,0.789-2.369,0.653-3.158-0.303
						c-0.788-0.956-0.653-2.369,0.303-3.158C117.935,240.488,119.349,240.624,120.137,241.579z"/>
				</g>
				<g>
					<path style="fill:#69B0DA;" d="M125.994,236.747c0.789,0.956,0.653,2.369-0.303,3.158c-0.956,0.789-2.369,0.653-3.158-0.302
						c-0.788-0.956-0.653-2.37,0.302-3.158C123.792,235.656,125.206,235.791,125.994,236.747z"/>
				</g>
				<g>
					<path style="fill:#69B0DA;" d="M132.004,231.787c0.788,0.956,0.653,2.37-0.302,3.158c-0.956,0.788-2.37,0.653-3.158-0.302
						c-0.789-0.956-0.653-2.37,0.302-3.158C129.802,230.696,131.216,230.832,132.004,231.787z"/>
				</g>
				<g>
					<path style="fill:#69B0DA;" d="M137.861,226.954c0.789,0.956,0.653,2.37-0.302,3.158s-2.37,0.653-3.158-0.303
						c-0.789-0.956-0.653-2.369,0.303-3.158C135.659,225.863,137.073,225.999,137.861,226.954z"/>
				</g>
			</g>
			<g>
				<g>
					<path style="fill:#69B0DA;" d="M126.425,261.679c0.789,0.956,0.653,2.369-0.303,3.158c-0.956,0.789-2.369,0.653-3.158-0.302
						s-0.653-2.37,0.302-3.158C124.223,260.588,125.637,260.723,126.425,261.679z"/>
				</g>
				<g>
					<path style="fill:#D2428F;" d="M132.435,256.72c0.788,0.956,0.653,2.369-0.303,3.158c-0.956,0.788-2.37,0.653-3.158-0.302
						c-0.789-0.956-0.653-2.37,0.303-3.158C130.233,255.628,131.647,255.764,132.435,256.72z"/>
				</g>
				<g>
					<path style="fill:#69B0DA;" d="M138.292,251.887c0.788,0.956,0.653,2.369-0.303,3.158c-0.956,0.788-2.369,0.653-3.158-0.302
						c-0.789-0.956-0.653-2.37,0.302-3.158C136.09,250.795,137.504,250.931,138.292,251.887z"/>
				</g>
				<g>
					<path style="fill:#69B0DA;" d="M144.302,246.927c0.788,0.956,0.653,2.37-0.302,3.158c-0.956,0.788-2.37,0.653-3.158-0.303
						c-0.788-0.956-0.653-2.369,0.303-3.158C142.1,245.836,143.514,245.972,144.302,246.927z"/>
				</g>
				<g>
					<path style="fill:#69B0DA;" d="M150.159,242.094c0.788,0.956,0.653,2.37-0.303,3.158c-0.956,0.789-2.37,0.653-3.158-0.302
						c-0.788-0.956-0.653-2.37,0.302-3.158C147.957,241.003,149.371,241.139,150.159,242.094z"/>
				</g>
			</g>
		</g>
		<g>
			<g>
				<g>
					<g>
						<path style="fill:#E9BAE7;" d="M256.513,196.712l-44.712-9.827c-1.584-0.348-2.586-1.914-2.238-3.498l5.407-24.601
							c0.348-1.584,1.915-2.586,3.498-2.238l44.712,9.827c1.584,0.348,2.586,1.914,2.238,3.498l-5.407,24.601
							C259.664,196.058,258.098,197.06,256.513,196.712z"/>
					</g>
					<g>
						<path style="fill:#E06FAA;" d="M258.902,196.758c-0.126,0-0.252-0.047-0.35-0.143l-20.949-20.497l-27.612,9.824
							c-0.262,0.091-0.547-0.043-0.639-0.304c-0.093-0.26,0.043-0.546,0.303-0.639l27.907-9.928c0.179-0.064,0.381-0.02,0.518,0.114
							l21.172,20.715c0.197,0.193,0.201,0.51,0.008,0.707C259.162,196.708,259.032,196.758,258.902,196.758z"/>
					</g>
					<g>
						<path style="fill:#E9BAE7;" d="M236.016,183.34l29.122-15.458l0,0c-0.389-0.739-1.078-1.315-1.957-1.508l-44.713-9.827
							c-0.88-0.193-1.746,0.04-2.409,0.548l0,0L236.016,183.34z"/>
					</g>
					<g>
						<path style="fill:#E06FAA;" d="M236.016,183.84c-0.151,0-0.301-0.069-0.398-0.197l-19.956-26.245
							c-0.167-0.22-0.124-0.534,0.096-0.701c0.221-0.167,0.533-0.125,0.701,0.095l19.698,25.907l28.747-15.258
							c0.241-0.13,0.546-0.038,0.676,0.207c0.13,0.244,0.037,0.546-0.207,0.676l-29.122,15.458
							C236.176,183.821,236.096,183.84,236.016,183.84z"/>
					</g>
				</g>
				<g>
					<g>
						<circle style="fill:#DA445A;" cx="263.869" cy="167.777" r="7.765"/>
					</g>
					<g>
						<g>
							<path style="fill:#FFFFFF;" d="M259.853,164.435c-0.038,0-0.083,0.004-0.153,0.016c-0.013,0.003-0.101,0.03-0.114,0.035
								l-1.199,0.43c-0.162,0.06-0.29,0.162-0.366,0.288c-0.078,0.123-0.118,0.262-0.118,0.411c0,0.211,0.077,0.395,0.219,0.529
								c0.14,0.135,0.321,0.206,0.525,0.206c0.125,0,0.253-0.027,0.382-0.081l0.071-0.03v4.145c0,0.201,0.075,0.382,0.218,0.526
								c0.142,0.143,0.321,0.218,0.517,0.218c0.204,0,0.387-0.075,0.533-0.219c0.142-0.143,0.217-0.325,0.217-0.525v-5.198
								c0-0.205-0.068-0.388-0.197-0.528C260.294,164.556,260.124,164.435,259.853,164.435z"/>
						</g>
						<g>
							<path style="fill:#FFFFFF;" d="M264.443,164.88c-0.338-0.301-0.751-0.453-1.227-0.453c-0.473,0-0.884,0.149-1.224,0.443
								c-0.322,0.281-0.567,0.68-0.728,1.186c-0.154,0.482-0.232,1.061-0.232,1.721c0,0.662,0.078,1.241,0.232,1.721
								c0.162,0.507,0.406,0.906,0.728,1.186c0.338,0.295,0.75,0.444,1.224,0.444c0.476,0,0.889-0.152,1.227-0.453
								c0.321-0.286,0.567-0.687,0.727-1.192c0.154-0.481,0.232-1.055,0.232-1.706c0-0.651-0.078-1.224-0.232-1.705
								C265.009,165.566,264.764,165.164,264.443,164.88z M263.802,168.825c-0.064,0.278-0.158,0.495-0.278,0.645
								c-0.087,0.109-0.18,0.157-0.309,0.157c-0.124,0-0.217-0.048-0.306-0.154c-0.119-0.147-0.213-0.363-0.277-0.639
								c-0.07-0.306-0.107-0.661-0.107-1.055c0-0.393,0.037-0.749,0.107-1.055c0.064-0.278,0.158-0.496,0.277-0.645
								c0.087-0.11,0.179-0.156,0.306-0.156c0.128,0,0.22,0.048,0.306,0.157c0.121,0.155,0.216,0.374,0.28,0.652
								c0.069,0.299,0.104,0.652,0.104,1.047C263.906,168.173,263.871,168.525,263.802,168.825z"/>
						</g>
						<g>
							<path style="fill:#FFFFFF;" d="M269.603,166.072c-0.162-0.507-0.406-0.908-0.727-1.192c-0.338-0.301-0.751-0.453-1.227-0.453
								c-0.473,0-0.884,0.149-1.224,0.443c-0.322,0.281-0.567,0.68-0.728,1.186c-0.154,0.482-0.232,1.061-0.232,1.721
								c0,0.662,0.078,1.241,0.232,1.721c0.162,0.507,0.406,0.906,0.728,1.186c0.338,0.295,0.75,0.444,1.224,0.444
								c0.476,0,0.889-0.152,1.227-0.453c0.321-0.286,0.567-0.687,0.727-1.192c0.154-0.481,0.232-1.055,0.232-1.706
								C269.834,167.126,269.756,166.553,269.603,166.072z M268.234,168.825c-0.064,0.278-0.158,0.495-0.278,0.645
								c-0.087,0.109-0.18,0.157-0.309,0.157c-0.123,0-0.218-0.049-0.306-0.154c-0.119-0.147-0.213-0.363-0.278-0.639
								c-0.07-0.306-0.107-0.661-0.107-1.055c0-0.393,0.037-0.749,0.107-1.055c0.064-0.278,0.158-0.496,0.278-0.645
								c0.087-0.11,0.179-0.156,0.306-0.156c0.128,0,0.22,0.048,0.306,0.157c0.121,0.155,0.216,0.374,0.28,0.652
								c0.069,0.299,0.104,0.652,0.104,1.047C268.339,168.173,268.303,168.525,268.234,168.825z"/>
						</g>
					</g>
				</g>
			</g>
			<g>
				<g>
					<g>
						<path style="fill:#456BEE;" d="M220.379,227.383l-43.359,14.689c-1.536,0.52-3.203-0.303-3.724-1.839l-8.082-23.857
							c-0.52-1.536,0.303-3.203,1.839-3.723l43.359-14.689c1.536-0.52,3.203,0.303,3.723,1.839l8.082,23.857
							C222.739,225.196,221.915,226.863,220.379,227.383z"/>
					</g>
					<g>
						<path style="fill:#3449F3;" d="M174.596,242.384c-0.111,0-0.224-0.037-0.316-0.113c-0.214-0.175-0.245-0.49-0.07-0.704
							l18.763-22.92c0.12-0.148,0.313-0.214,0.501-0.17l28.831,6.796c0.27,0.063,0.436,0.333,0.372,0.602
							c-0.063,0.268-0.327,0.437-0.601,0.372l-28.527-6.725l-18.565,22.679C174.884,242.321,174.741,242.384,174.596,242.384z"/>
					</g>
					<g>
						<path style="fill:#456BEE;" d="M195.921,226.525l16.947-28.282l0,0c-0.715-0.432-1.602-0.569-2.455-0.28l-43.359,14.689
							c-0.853,0.289-1.474,0.937-1.779,1.714l0,0L195.921,226.525z"/>
					</g>
					<g>
						<path style="fill:#3449F3;" d="M195.922,227.025c-0.062,0-0.124-0.011-0.185-0.035l-30.647-12.158
							c-0.257-0.102-0.382-0.393-0.28-0.649c0.102-0.256,0.393-0.382,0.649-0.28l30.252,12.001l16.729-27.917
							c0.142-0.238,0.449-0.314,0.686-0.172c0.237,0.142,0.314,0.449,0.172,0.686l-16.946,28.282
							C196.257,226.937,196.092,227.025,195.922,227.025z"/>
					</g>
				</g>
				<g>
					<g>
						<g>
							<path style="fill:#EFC53D;" d="M175.645,213.158c1.19,0.708,1.167,2.439-0.042,3.115l-10.873,6.085
								c-1.208,0.676-2.695-0.209-2.677-1.594l0.167-12.459c0.019-1.384,1.529-2.23,2.719-1.521L175.645,213.158z"/>
						</g>
					</g>
					<g>
						<g>
							<path style="fill:#FFFFFF;" d="M167.454,216.741c-0.01-0.208,0.053-0.389,0.188-0.544c0.136-0.154,0.383-0.335,0.741-0.541
								c0.358-0.206,0.663-0.277,0.914-0.212c0.25,0.065,0.472,0.265,0.667,0.603l0.114,0.198c0.113,0.197,0.191,0.348,0.233,0.449
								c0.042,0.102,0.068,0.238,0.078,0.407c0.006,0.315-0.241,0.615-0.74,0.901c-0.498,0.286-0.874,0.395-1.126,0.327
								c-0.253-0.069-0.512-0.333-0.777-0.795C167.561,217.213,167.464,216.949,167.454,216.741z M168.283,214.351
								c-0.133,0.131-0.331,0.272-0.595,0.423c-0.264,0.152-0.486,0.252-0.666,0.301c-0.18,0.049-0.332,0.037-0.456-0.035
								c-0.123-0.071-0.215-0.144-0.274-0.22c-0.06-0.075-0.139-0.2-0.239-0.372l-2.25-3.917c-0.099-0.173-0.168-0.306-0.205-0.4
								c-0.038-0.094-0.054-0.212-0.049-0.357c0.004-0.145,0.071-0.286,0.202-0.421c0.13-0.135,0.328-0.278,0.591-0.429
								c0.263-0.151,0.486-0.25,0.669-0.295c0.182-0.045,0.337-0.029,0.462,0.047c0.125,0.075,0.219,0.154,0.282,0.233
								c0.062,0.079,0.143,0.206,0.242,0.378l2.25,3.916c0.099,0.173,0.167,0.304,0.201,0.394c0.035,0.09,0.049,0.205,0.042,0.345
								C168.485,214.084,168.415,214.22,168.283,214.351z"/>
						</g>
					</g>
				</g>
			</g>
		</g>
	</g>
	<g>
		<g>
			<g>
				<path style="fill:#5C1DDF;" d="M123.143,371.689h85.249l-5.556-47.397c-0.434-3.702-3.571-6.492-7.298-6.492h-70.453
					c-4.397,0-7.81,3.836-7.298,8.203L123.143,371.689z"/>
			</g>
			<g>
				<path style="fill:#5C1DDF;" d="M193.945,371.689h34.137c1.004,0,1.848,0.755,1.96,1.752l0,0c0.131,1.168-0.784,2.191-1.96,2.191
					h-33.695L193.945,371.689z"/>
			</g>
			<g>
				<path style="fill:#733BE7;" d="M124.899,375.633h81.298l-0.441-3.943h-85.249l0,0
					C120.749,373.933,122.642,375.633,124.899,375.633z"/>
			</g>
			<g>
				<path style="fill:#733BE7;" d="M120.506,371.689h85.249l-5.556-47.397c-0.434-3.702-3.571-6.492-7.298-6.492h-70.453
					c-4.397,0-7.81,3.836-7.298,8.203L120.506,371.689z"/>
			</g>
			<g>
				<g>
					<g>
						<path style="fill:#5C1DDF;" d="M198.167,369.349c0.029,0,0.056-0.001,0.085-0.005c0.345-0.046,0.588-0.362,0.543-0.708
							l-0.706-5.366c-0.045-0.346-0.369-0.588-0.709-0.543c-0.345,0.045-0.588,0.362-0.543,0.709l0.706,5.365
							C197.584,369.118,197.856,369.349,198.167,369.349z"/>
					</g>
				</g>
				<g>
					<g>
						<path style="fill:#5C1DDF;" d="M196.3,369.349c0.028,0,0.056-0.001,0.083-0.005c0.347-0.046,0.59-0.362,0.544-0.708
							l-0.705-5.365c-0.045-0.347-0.39-0.59-0.708-0.544c-0.347,0.045-0.59,0.362-0.544,0.708l0.705,5.365
							C195.717,369.118,195.988,369.349,196.3,369.349z"/>
					</g>
				</g>
				<g>
					<g>
						<path style="fill:#5C1DDF;" d="M194.432,369.349c0.029,0,0.056-0.001,0.083-0.005c0.347-0.046,0.59-0.362,0.544-0.708
							l-0.705-5.365c-0.044-0.347-0.378-0.59-0.708-0.544c-0.347,0.045-0.589,0.362-0.544,0.708l0.705,5.365
							C193.849,369.118,194.121,369.349,194.432,369.349z"/>
					</g>
				</g>
				<g>
					<g>
						<path style="fill:#5C1DDF;" d="M192.565,369.349c0.029,0,0.056-0.001,0.083-0.005c0.347-0.046,0.59-0.362,0.544-0.708
							l-0.705-5.365c-0.045-0.347-0.382-0.59-0.708-0.544c-0.347,0.045-0.59,0.362-0.544,0.708l0.705,5.365
							C191.982,369.118,192.253,369.349,192.565,369.349z"/>
					</g>
				</g>
				<g>
					<g>
						<path style="fill:#5C1DDF;" d="M190.697,369.349c0.029,0,0.056-0.001,0.083-0.005c0.347-0.046,0.59-0.362,0.544-0.708
							l-0.705-5.365c-0.045-0.347-0.386-0.59-0.708-0.544c-0.347,0.045-0.59,0.362-0.544,0.708l0.705,5.365
							C190.114,369.118,190.386,369.349,190.697,369.349z"/>
					</g>
				</g>
			</g>
			<g>
				<g>
					<path style="fill:#FFFFFF;" d="M158.056,351.302h4.503c1.054,0,2.062-0.452,2.764-1.24c0.703-0.788,1.034-1.841,0.912-2.89
						v-0.001l-0.67-5.715c-0.219-1.864-1.799-3.268-3.675-3.268h-4.503c-1.056,0-2.063,0.452-2.765,1.24
						c-0.701,0.788-1.032,1.842-0.909,2.89l0.669,5.716C154.6,349.897,156.179,351.302,158.056,351.302z"/>
				</g>
			</g>
		</g>
		<g>
			<g>
				<g>
					<g>
						<g>
							<g>
								<path style="fill:#DA445A;" d="M214.133,304.323c-8.831,3.33-23.686-2.257-26.851-8.551
									c-3.222-6.407,0.635-15.466,5.675-17.821c6.383-2.982,23.829,2.187,26.851,8.551
									C222.735,292.666,218.508,302.673,214.133,304.323z"/>
							</g>
						</g>
					</g>
					<g>
						<polygon style="fill:#DA445A;" points="194.036,301.712 196.478,312.853 204.932,305.118 						"/>
					</g>
				</g>
				<g>
					<g>
						<g>
							<path style="fill:#FFFFFF;" d="M198.966,284.588c2.434,4.76,4.99,9.456,7.667,14.084c0.322,0.557,1.187,0.054,0.863-0.505
								c-2.677-4.628-5.233-9.324-7.667-14.084C199.537,283.51,198.674,284.015,198.966,284.588L198.966,284.588z"/>
						</g>
					</g>
					<g>
						<g>
							<path style="fill:#FFFFFF;" d="M196.391,295.54c4.792-2.365,9.522-4.853,14.186-7.463c0.562-0.314,0.058-1.178-0.505-0.863
								c-4.663,2.61-9.393,5.098-14.186,7.463C195.309,294.962,195.816,295.824,196.391,295.54L196.391,295.54z"/>
						</g>
					</g>
				</g>
			</g>
			<g>
				<g>
					<g>
						<g>
							<g>
								<path style="fill:#DA445A;" d="M236.811,342.244c-9.178-2.199-18.339-15.159-17.427-22.145
									c0.928-7.111,9.204-12.445,14.697-11.567c6.956,1.113,18.497,15.181,17.428,22.145
									C250.473,337.423,241.358,343.334,236.811,342.244z"/>
							</g>
						</g>
					</g>
					<g>
						<polygon style="fill:#DA445A;" points="221.641,328.807 217.411,339.399 228.749,337.74 						"/>
					</g>
				</g>
				<g>
					<g>
						<path style="fill:#FFFFFF;" d="M230.746,329.391c-0.569-0.693-0.972-1.419-1.213-2.179c-0.241-0.76-0.323-1.522-0.247-2.288
							c0.076-0.766,0.305-1.498,0.689-2.196c0.385-0.698,0.923-1.331,1.616-1.899c0.686-0.563,1.411-0.967,2.174-1.21
							c0.763-0.243,1.527-0.326,2.293-0.25c0.766,0.076,1.497,0.305,2.195,0.69c0.698,0.385,1.331,0.922,1.9,1.616
							c0.563,0.686,0.966,1.412,1.209,2.175c0.243,0.762,0.327,1.527,0.251,2.292c-0.075,0.766-0.307,1.498-0.694,2.199
							c-0.388,0.701-0.925,1.333-1.611,1.896c-0.569,0.467-1.135,0.801-1.698,1.005c-0.563,0.203-1.079,0.271-1.547,0.205
							c-0.467-0.066-0.849-0.279-1.143-0.637c-0.259-0.316-0.376-0.651-0.352-1.007c0.023-0.356,0.186-0.658,0.489-0.906
							l0.353-0.289c-0.294,0.045-0.599,0.029-0.916-0.048c-0.316-0.076-0.615-0.199-0.897-0.365
							c-0.282-0.167-0.522-0.371-0.719-0.612c-0.401-0.489-0.648-1.01-0.741-1.566c-0.092-0.555-0.034-1.095,0.177-1.619
							c0.211-0.525,0.563-0.99,1.059-1.396c0.495-0.406,1.021-0.657,1.579-0.753c0.558-0.095,1.103-0.043,1.635,0.157
							c0.531,0.201,1,0.548,1.406,1.043c0.406,0.495,0.655,1.023,0.748,1.583c0.092,0.56,0.037,1.105-0.166,1.633
							c-0.203,0.529-0.552,0.996-1.047,1.402l-1.596,1.309c-0.198,0.162-0.315,0.318-0.352,0.468
							c-0.038,0.15-0.004,0.29,0.103,0.419c0.162,0.198,0.401,0.3,0.716,0.305c0.315,0.005,0.672-0.081,1.074-0.261
							c0.401-0.179,0.815-0.444,1.242-0.794c0.581-0.477,1.035-1.012,1.361-1.605c0.326-0.593,0.521-1.213,0.585-1.86
							c0.064-0.647-0.006-1.293-0.21-1.939c-0.204-0.646-0.544-1.259-1.021-1.84c-0.482-0.588-1.02-1.044-1.613-1.37
							c-0.593-0.326-1.213-0.521-1.86-0.585c-0.647-0.064-1.293,0.007-1.936,0.214c-0.644,0.207-1.255,0.549-1.837,1.025
							c-0.587,0.482-1.046,1.018-1.374,1.608c-0.328,0.59-0.524,1.209-0.588,1.857c-0.064,0.647,0.007,1.293,0.214,1.935
							c0.207,0.643,0.55,1.258,1.033,1.846c0.223,0.272,0.491,0.536,0.805,0.791c0.313,0.255,0.603,0.444,0.87,0.567
							c0.205,0.099,0.324,0.223,0.356,0.367c0.031,0.145-0.034,0.284-0.194,0.416c-0.13,0.107-0.33,0.115-0.6,0.026
							c-0.269-0.09-0.576-0.268-0.919-0.534C231.442,330.165,231.096,329.818,230.746,329.391z M233.64,327.017
							c0.289,0.353,0.621,0.602,0.996,0.75c0.374,0.148,0.761,0.188,1.161,0.119c0.398-0.069,0.778-0.25,1.136-0.544
							c0.353-0.289,0.601-0.623,0.747-1c0.145-0.378,0.183-0.767,0.115-1.165c-0.069-0.4-0.248-0.775-0.537-1.127
							c-0.294-0.359-0.63-0.611-1.008-0.757c-0.378-0.145-0.765-0.182-1.161-0.11c-0.397,0.072-0.771,0.252-1.123,0.541
							c-0.359,0.294-0.612,0.629-0.76,1.003c-0.149,0.375-0.187,0.761-0.115,1.156C233.163,326.281,233.346,326.658,233.64,327.017z
							"/>
					</g>
				</g>
			</g>
			<g>
				<g>
					<g>
						<g>
							<g>
								<path style="fill:#DA445A;" d="M176.757,292.414c-4.061,8.519-18.643,14.782-25.287,12.437
									c-6.763-2.388-10.258-11.593-8.255-16.783c2.536-6.573,18.698-14.932,25.287-12.437
									C174.885,278.048,178.769,288.193,176.757,292.414z"/>
							</g>
						</g>
					</g>
					<g>
						<polygon style="fill:#DA445A;" points="160.457,304.455 169.937,310.797 170.674,299.362 						"/>
					</g>
				</g>
				<g>
					<g>
						<path style="fill:#FFFFFF;" d="M154.406,292.789c0.371,0.818,0.009,1.782-0.809,2.153c-0.818,0.371-1.782,0.009-2.153-0.809
							c-0.371-0.818-0.009-1.782,0.809-2.153C153.07,291.609,154.035,291.971,154.406,292.789z"/>
					</g>
					<g>
						<path style="fill:#FFFFFF;" d="M161.454,289.592c0.371,0.818,0.009,1.782-0.809,2.153c-0.818,0.371-1.782,0.009-2.153-0.809
							c-0.371-0.818-0.009-1.782,0.809-2.153C160.119,288.412,161.083,288.774,161.454,289.592z"/>
					</g>
					<g>
						<path style="fill:#FFFFFF;" d="M168.502,286.395c0.371,0.818,0.009,1.782-0.809,2.153c-0.818,0.371-1.782,0.009-2.153-0.809
							c-0.371-0.818-0.009-1.782,0.809-2.153C167.167,285.214,168.131,285.576,168.502,286.395z"/>
					</g>
				</g>
			</g>
		</g>
		<g>
			<g>
				<g>
					<polygon style="fill:#FFFFFF;" points="350.135,366.975 353.485,370.769 352.084,375.145 344.11,375.94 341.91,373.02 
						340.822,375.42 333.97,375.485 329.782,368.842 333.107,360.147 340.253,358.949 343.659,352.98 351.338,357.119 
						350.814,361.312 354.16,362.95 352.424,367.468 					"/>
				</g>
				<g>
					<path style="fill:#DDE5EB;" d="M341.91,373.37c-0.121,0-0.238-0.063-0.304-0.175c-0.096-0.168-0.038-0.382,0.129-0.479
						l5.803-3.341v-8.173c0-0.193,0.156-0.35,0.35-0.35s0.35,0.156,0.35,0.35v8.375c0,0.125-0.066,0.241-0.175,0.304l-5.978,3.442
						C342.03,373.355,341.969,373.37,341.91,373.37z"/>
				</g>
				<g>
					<path style="fill:#DDE5EB;" d="M329.782,369.191c-0.169,0-0.318-0.122-0.346-0.294c-0.03-0.191,0.1-0.37,0.29-0.401
						l8.515-1.367c0.199-0.033,0.371,0.101,0.401,0.29c0.03,0.191-0.1,0.37-0.29,0.401l-8.515,1.367
						C329.819,369.19,329.799,369.191,329.782,369.191z"/>
				</g>
				<g>
					<path style="fill:#DDE5EB;" d="M334.039,369.928c-0.153,0-0.293-0.101-0.337-0.255c-0.053-0.186,0.056-0.379,0.242-0.432
						l3.824-1.08c0.187-0.051,0.379,0.057,0.432,0.242c0.053,0.186-0.056,0.379-0.242,0.432l-3.824,1.08
						C334.102,369.924,334.07,369.928,334.039,369.928z"/>
				</g>
				<g>
					<path style="fill:#DDE5EB;" d="M333.97,375.834c-0.095,0-0.189-0.037-0.258-0.112c-0.131-0.143-0.121-0.364,0.021-0.495
						l6.879-6.332l-0.708-9.92c-0.015-0.193,0.131-0.36,0.323-0.374c0.216-0.02,0.36,0.132,0.374,0.323l0.721,10.089
						c0.008,0.106-0.033,0.211-0.111,0.283l-7.003,6.446C334.14,375.804,334.055,375.834,333.97,375.834z"/>
				</g>
				<g>
					<path style="fill:#DDE5EB;" d="M334.039,365.541c-0.101,0-0.2-0.043-0.269-0.126c-0.124-0.148-0.104-0.369,0.045-0.492
						l3.775-3.141l-4.141-1.379c-0.184-0.06-0.283-0.259-0.222-0.442c0.061-0.183,0.258-0.287,0.442-0.222l4.737,1.577
						c0.121,0.04,0.21,0.143,0.233,0.268c0.023,0.124-0.022,0.252-0.12,0.333l-4.258,3.544
						C334.197,365.515,334.118,365.541,334.039,365.541z"/>
				</g>
				<g>
					<path style="fill:#DDE5EB;" d="M335.63,365.541c-0.117,0-0.231-0.059-0.298-0.165c-0.102-0.164-0.051-0.38,0.113-0.482
						l2.667-1.653c0.163-0.102,0.38-0.052,0.482,0.113c0.102,0.164,0.051,0.38-0.113,0.482l-2.667,1.653
						C335.757,365.524,335.693,365.541,335.63,365.541z"/>
				</g>
				<g>
					<path style="fill:#DDE5EB;" d="M347.271,358.534c-0.155,0-0.298-0.104-0.339-0.261c-0.049-0.188,0.064-0.379,0.25-0.428
						l4.066-1.065c0.189-0.05,0.379,0.064,0.428,0.25c0.049,0.188-0.063,0.379-0.25,0.428l-4.066,1.065
						C347.33,358.531,347.3,358.534,347.271,358.534z"/>
				</g>
				<g>
					<path style="fill:#DDE5EB;" d="M350.135,367.324c-0.165,0-0.312-0.116-0.344-0.284l-0.831-4.344
						c-0.02-0.102,0.008-0.208,0.074-0.288c0.066-0.081,0.165-0.127,0.27-0.127h2.033c0.193,0,0.35,0.156,0.35,0.35
						c0,0.193-0.156,0.35-0.35,0.35h-1.61l0.752,3.929c0.036,0.189-0.088,0.373-0.278,0.409
						C350.179,367.322,350.157,367.324,350.135,367.324z"/>
				</g>
			</g>
			<g>
				<g>
					<polygon style="fill:#FFFFFF;" points="392.017,357.37 394.304,352.855 398.888,352.538 402.576,359.652 400.676,362.777 
						403.308,362.9 405.902,369.242 401.279,375.59 391.971,375.716 388.215,369.519 381.41,368.562 382.416,359.897 
						386.505,358.834 386.789,355.119 391.629,355.061 					"/>
				</g>
				<g>
					<path style="fill:#DDE5EB;" d="M400.675,363.126c-0.076,0-0.153-0.024-0.217-0.075l-5.25-4.155l-7.593,3.022
						c-0.181,0.071-0.383-0.017-0.455-0.195c-0.071-0.18,0.017-0.384,0.195-0.455l7.781-3.098c0.115-0.046,0.249-0.027,0.347,0.051
						l5.408,4.281c0.152,0.12,0.178,0.34,0.058,0.491C400.881,363.081,400.779,363.126,400.675,363.126z"/>
				</g>
				<g>
					<path style="fill:#DDE5EB;" d="M401.279,375.94c-0.119,0-0.235-0.061-0.301-0.17l-4.419-7.405
						c-0.099-0.166-0.045-0.381,0.121-0.48c0.165-0.098,0.381-0.045,0.48,0.121l4.419,7.405c0.099,0.166,0.045,0.381-0.121,0.48
						C401.402,375.924,401.34,375.94,401.279,375.94z"/>
				</g>
				<g>
					<path style="fill:#DDE5EB;" d="M400.389,371.712c-0.105,0-0.209-0.047-0.277-0.137l-2.419-3.153
						c-0.118-0.153-0.089-0.373,0.064-0.49c0.152-0.117,0.374-0.089,0.49,0.064l2.419,3.153c0.118,0.153,0.089,0.373-0.064,0.49
						C400.539,371.689,400.464,371.712,400.389,371.712z"/>
				</g>
				<g>
					<path style="fill:#DDE5EB;" d="M388.215,369.869c-0.13,0-0.255-0.072-0.315-0.197c-0.084-0.174-0.011-0.384,0.163-0.468
						l9.107-4.4c0.096-0.045,0.208-0.047,0.304,0l8.579,4.123c0.175,0.084,0.248,0.293,0.164,0.467
						c-0.084,0.175-0.293,0.247-0.467,0.164l-8.428-4.05l-8.955,4.327C388.319,369.858,388.267,369.869,388.215,369.869z"/>
				</g>
				<g>
					<path style="fill:#DDE5EB;" d="M391.733,375.674c-0.185,0-0.339-0.143-0.35-0.329l-0.286-4.985
						c-0.007-0.127,0.055-0.248,0.162-0.316c0.108-0.067,0.243-0.072,0.355-0.012l4.865,2.645c0.17,0.093,0.232,0.305,0.141,0.475
						c-0.092,0.171-0.306,0.231-0.475,0.141l-4.313-2.345l0.25,4.356c0.011,0.193-0.137,0.358-0.329,0.37
						C391.747,375.674,391.74,375.674,391.733,375.674z"/>
				</g>
				<g>
					<path style="fill:#DDE5EB;" d="M395.724,371.856c-0.072,0-0.146-0.021-0.208-0.068l-2.522-1.866
						c-0.155-0.115-0.189-0.334-0.073-0.489c0.114-0.156,0.335-0.188,0.489-0.073l2.522,1.866c0.155,0.115,0.189,0.334,0.073,0.489
						C395.937,371.808,395.831,371.856,395.724,371.856z"/>
				</g>
				<g>
					<path style="fill:#DDE5EB;" d="M384.909,363.631c-0.107,0-0.213-0.049-0.282-0.142l-2.493-3.384
						c-0.114-0.156-0.081-0.375,0.074-0.49c0.155-0.115,0.374-0.081,0.49,0.074l2.493,3.384c0.114,0.156,0.081,0.375-0.074,0.49
						C385.054,363.609,384.981,363.631,384.909,363.631z"/>
				</g>
				<g>
					<path style="fill:#DDE5EB;" d="M388.289,360.098c-0.036,0-0.072-0.005-0.107-0.017c-0.1-0.032-0.179-0.106-0.218-0.203
						l-0.752-1.89c-0.071-0.18,0.017-0.384,0.195-0.455c0.183-0.07,0.384,0.017,0.455,0.195l0.596,1.497l3.371-2.15
						c0.163-0.103,0.379-0.057,0.483,0.106c0.104,0.163,0.057,0.38-0.106,0.483l-3.729,2.378
						C388.42,360.079,388.355,360.098,388.289,360.098z"/>
				</g>
			</g>
			<g>
				<g>
					<polygon style="fill:#FFFFFF;" points="359.438,363.617 358.95,359.667 361.803,357.449 367.331,360.475 367.462,363.347 
						369.234,362.273 373.709,365.275 373.476,371.446 367.456,375.612 362.286,373.215 357.425,375.576 354.28,369.479 
						356.482,366.991 355.038,364.441 358.172,362.28 					"/>
				</g>
				<g>
					<path style="fill:#DDE5EB;" d="M358.333,368.711c-0.068,0-0.138-0.02-0.197-0.061c-0.16-0.109-0.201-0.327-0.092-0.486
						l3.721-5.436c0.07-0.102,0.194-0.16,0.316-0.151l5.408,0.422c0.192,0.015,0.337,0.184,0.321,0.376
						c-0.015,0.192-0.164,0.336-0.376,0.321l-5.206-0.406l-3.606,5.269C358.553,368.658,358.444,368.711,358.333,368.711z"/>
				</g>
				<g>
					<path style="fill:#DDE5EB;" d="M373.476,371.796c-0.05,0-0.102-0.011-0.149-0.033l-6.133-2.895
						c-0.175-0.082-0.25-0.291-0.167-0.466c0.083-0.176,0.293-0.249,0.466-0.167l6.133,2.895c0.175,0.082,0.25,0.291,0.167,0.466
						C373.733,371.723,373.607,371.796,373.476,371.796z"/>
				</g>
				<g>
					<path style="fill:#DDE5EB;" d="M371.041,369.427c-0.037,0-0.074-0.006-0.111-0.018l-2.962-0.997
						c-0.184-0.062-0.282-0.261-0.221-0.443c0.063-0.184,0.26-0.276,0.443-0.221l2.962,0.997c0.184,0.062,0.282,0.261,0.221,0.443
						C371.323,369.335,371.187,369.427,371.041,369.427z"/>
				</g>
				<g>
					<path style="fill:#DDE5EB;" d="M362.287,373.565c-0.061,0-0.121-0.015-0.177-0.048c-0.167-0.097-0.223-0.311-0.125-0.479
						l4.014-6.867c0.054-0.092,0.147-0.154,0.252-0.17l7.408-1.073c0.192-0.021,0.369,0.105,0.396,0.297
						c0.027,0.191-0.105,0.368-0.297,0.396l-7.241,1.049l-3.929,6.722C362.524,373.503,362.407,373.565,362.287,373.565z"/>
				</g>
				<g>
					<path style="fill:#DDE5EB;" d="M367.13,375.81c-0.105,0-0.21-0.047-0.278-0.138l-2.374-3.127
						c-0.077-0.102-0.093-0.236-0.042-0.352c0.051-0.116,0.161-0.196,0.287-0.208l4.336-0.408c0.2-0.019,0.362,0.124,0.382,0.315
						c0.018,0.192-0.123,0.363-0.315,0.382l-3.71,0.349l1.993,2.626c0.117,0.154,0.087,0.374-0.066,0.49
						C367.278,375.787,367.204,375.81,367.13,375.81z"/>
				</g>
				<g>
					<path style="fill:#DDE5EB;" d="M368.06,371.567c-0.005,0-0.011,0-0.016,0l-2.466-0.111c-0.193-0.009-0.343-0.172-0.334-0.365
						c0.009-0.192,0.165-0.329,0.365-0.334l2.466,0.111c0.193,0.009,0.343,0.172,0.334,0.365
						C368.401,371.421,368.247,371.567,368.06,371.567z"/>
				</g>
				<g>
					<path style="fill:#DDE5EB;" d="M357.392,370.943c-0.039,0-0.079-0.006-0.118-0.02l-3.112-1.115
						c-0.182-0.064-0.276-0.266-0.211-0.447c0.064-0.182,0.264-0.28,0.447-0.211l3.112,1.115c0.182,0.065,0.276,0.266,0.211,0.447
						C357.671,370.854,357.536,370.943,357.392,370.943z"/>
				</g>
				<g>
					<path style="fill:#DDE5EB;" d="M358.048,367.154c-0.069,0-0.139-0.021-0.197-0.06l-1.319-0.903
						c-0.16-0.109-0.201-0.327-0.092-0.486c0.11-0.161,0.328-0.2,0.486-0.092l0.971,0.664l1.221-2.799
						c0.077-0.178,0.288-0.26,0.461-0.181c0.178,0.077,0.259,0.283,0.181,0.46l-1.39,3.188c-0.042,0.096-0.124,0.168-0.225,0.196
						C358.112,367.15,358.08,367.154,358.048,367.154z"/>
				</g>
			</g>
		</g>
		<g>
			<g>
				<path style="fill:#FFFFFF;" d="M291.457,369.989c9.29,0,27.492,1.267,31.907-4.337l-54.047-0.244
					c-5.901,3.905-24.386,4.581-36.844,4.581H291.457z"/>
			</g>
			<g>
				<rect x="291.191" y="369.989" style="fill:#FFF2F8;" width="34.28" height="4.284"/>
			</g>
			<g>
				<rect x="232.473" y="369.989" style="fill:#FFFFFF;" width="58.718" height="4.284"/>
			</g>
			<g>
				<rect x="291.191" y="374.273" style="fill:#161FDE;" width="34.28" height="2.142"/>
			</g>
			<g>
				<rect x="232.473" y="374.273" style="fill:#456BEE;" width="58.718" height="2.142"/>
			</g>
			<g>
				<g>
					<line style="fill:#FFFFFF;" x1="319.678" y1="371.677" x2="291.457" y2="371.677"/>
					<path d="M319.678,372.177h-28.222c-0.276,0-0.5-0.224-0.5-0.5c0-0.276,0.224-0.5,0.5-0.5h28.222c0.276,0,0.5,0.224,0.5,0.5
						C320.178,371.953,319.955,372.177,319.678,372.177z"/>
				</g>
				<g>
					<line style="fill:#FFFFFF;" x1="274.486" y1="372.039" x2="233.046" y2="372.039"/>
					<path d="M274.485,372.539h-41.439c-0.276,0-0.5-0.224-0.5-0.5c0-0.276,0.224-0.5,0.5-0.5h41.439c0.276,0,0.5,0.224,0.5,0.5
						C274.985,372.315,274.761,372.539,274.485,372.539z"/>
				</g>
			</g>
			<g>
				<g>
					<path d="M239.615,378.135c-2.363,0-4.285-2.409-4.285-5.371c0-2.961,1.922-5.37,4.285-5.37c1.427,0,2.755,0.881,3.552,2.357
						c0.131,0.243,0.04,0.546-0.203,0.678c-0.24,0.127-0.545,0.042-0.678-0.203c-0.619-1.147-1.617-1.832-2.671-1.832
						c-1.812,0-3.285,1.96-3.285,4.37c0,2.41,1.474,4.371,3.285,4.371c0.777,0,1.533-0.372,2.129-1.048
						c0.182-0.205,0.497-0.228,0.706-0.044c0.207,0.183,0.227,0.498,0.044,0.706C241.706,377.643,240.683,378.135,239.615,378.135z"
						/>
				</g>
				<g>
					<path d="M246.511,378.135c-2.363,0-4.285-2.409-4.285-5.371c0-2.961,1.922-5.37,4.285-5.37c1.427,0,2.755,0.881,3.552,2.357
						c0.131,0.243,0.04,0.546-0.203,0.678c-0.24,0.127-0.545,0.042-0.678-0.203c-0.619-1.147-1.617-1.832-2.671-1.832
						c-1.812,0-3.285,1.96-3.285,4.37c0,2.41,1.474,4.371,3.285,4.371c0.777,0,1.533-0.372,2.129-1.048
						c0.183-0.205,0.497-0.228,0.706-0.044c0.207,0.183,0.227,0.498,0.044,0.706C248.602,377.643,247.58,378.135,246.511,378.135z"
						/>
				</g>
				<g>
					<path d="M253.408,378.135c-2.363,0-4.285-2.409-4.285-5.371c0-2.961,1.922-5.37,4.285-5.37c1.427,0,2.755,0.881,3.552,2.357
						c0.131,0.243,0.04,0.546-0.203,0.678c-0.24,0.127-0.545,0.042-0.678-0.203c-0.619-1.147-1.617-1.832-2.671-1.832
						c-1.812,0-3.285,1.96-3.285,4.37c0,2.41,1.474,4.371,3.285,4.371c0.777,0,1.533-0.372,2.129-1.048
						c0.182-0.205,0.497-0.228,0.706-0.044c0.207,0.183,0.227,0.498,0.044,0.706C255.499,377.643,254.476,378.135,253.408,378.135z"
						/>
				</g>
				<g>
					<path d="M260.304,378.135c-2.363,0-4.285-2.409-4.285-5.371c0-2.961,1.922-5.37,4.285-5.37c1.427,0,2.755,0.881,3.552,2.357
						c0.131,0.243,0.04,0.546-0.203,0.678c-0.239,0.127-0.546,0.042-0.678-0.203c-0.619-1.147-1.617-1.832-2.671-1.832
						c-1.811,0-3.285,1.96-3.285,4.37c0,2.41,1.474,4.371,3.285,4.371c0.778,0,1.534-0.372,2.129-1.047
						c0.183-0.208,0.498-0.228,0.705-0.045c0.208,0.182,0.228,0.498,0.045,0.705C262.397,377.643,261.374,378.135,260.304,378.135z"
						/>
				</g>
				<g>
					<path d="M267.201,378.135c-2.363,0-4.285-2.409-4.285-5.371c0-2.961,1.922-5.37,4.285-5.37c1.427,0,2.755,0.881,3.552,2.357
						c0.131,0.243,0.04,0.546-0.203,0.678c-0.24,0.127-0.546,0.042-0.678-0.203c-0.619-1.147-1.617-1.832-2.671-1.832
						c-1.811,0-3.285,1.96-3.285,4.37c0,2.41,1.474,4.371,3.285,4.371c0.778,0,1.534-0.372,2.129-1.047
						c0.182-0.208,0.498-0.228,0.705-0.045c0.208,0.182,0.228,0.498,0.045,0.705C269.294,377.643,268.27,378.135,267.201,378.135z"
						/>
				</g>
				<g>
					<path d="M274.097,378.135c-2.363,0-4.285-2.409-4.285-5.371c0-2.961,1.922-5.37,4.285-5.37c1.427,0,2.755,0.881,3.552,2.357
						c0.131,0.243,0.04,0.546-0.203,0.678c-0.24,0.127-0.546,0.042-0.678-0.203c-0.619-1.147-1.617-1.832-2.671-1.832
						c-1.812,0-3.285,1.96-3.285,4.37c0,2.41,1.474,4.371,3.285,4.371c0.778,0,1.534-0.372,2.129-1.047
						c0.183-0.208,0.498-0.228,0.705-0.045c0.208,0.182,0.228,0.498,0.045,0.705C276.19,377.643,275.167,378.135,274.097,378.135z"
						/>
				</g>
				<g>
					<path d="M280.995,378.135c-2.363,0-4.286-2.409-4.286-5.371c0-2.961,1.923-5.37,4.286-5.37c1.427,0,2.754,0.881,3.551,2.357
						c0.131,0.243,0.04,0.546-0.203,0.678c-0.24,0.127-0.546,0.042-0.678-0.203c-0.619-1.147-1.617-1.832-2.67-1.832
						c-1.811,0-3.286,1.96-3.286,4.37c0,2.41,1.475,4.371,3.286,4.371c0.777,0,1.533-0.372,2.128-1.047
						c0.182-0.208,0.498-0.228,0.705-0.045c0.208,0.182,0.228,0.498,0.045,0.705C283.087,377.643,282.064,378.135,280.995,378.135z"
						/>
				</g>
			</g>
		</g>
		<g>
			<g>
				<path style="fill:#FF7EC2;" d="M443.168,375.633H53.364c-2.114,0-3.827,1.714-3.827,3.827l0,0c0,2.114,1.714,3.827,3.827,3.827
					h389.805c2.114,0,3.827-1.714,3.827-3.827l0,0C446.996,377.346,445.282,375.633,443.168,375.633z"/>
			</g>
		</g>
	</g>
</g>
</svg>
